<?xml version="1.0" encoding="UTF-8"?>
<svg version="1.1" xmlns="http://www.w3.org/2000/svg" width="192" height="192">
<path d="M0 0 C4.10232637 2.4944791 4.10232637 2.4944791 5.25 5.9375 C5.91 5.9375 6.57 5.9375 7.25 5.9375 C19.15512376 20.03567288 18.42973242 39.78071094 16.9765625 57.21875 C16.54562382 59.85316759 15.95306246 62.36207121 15.25 64.9375 C14.78980469 66.74734375 14.78980469 66.74734375 14.3203125 68.59375 C10.2204793 83.97366481 4.0683554 98.9390493 -3.265625 113.05078125 C-5.13397269 116.68422584 -6.88729534 120.36517222 -8.625 124.0625 C-9.09123779 125.04174438 -9.09123779 125.04174438 -9.56689453 126.04077148 C-11.20986086 129.34658398 -11.20986086 129.34658398 -11.75 132.9375 C1.68935169 129.95446633 16.14147238 122.15603849 27.3671875 114.23828125 C29.17582099 112.98874816 31.00720191 111.92371174 32.9375 110.875 C35.5178423 109.36574318 37.14176884 108.17335362 39.25 106.1875 C42.87027196 103.47229603 44.82950505 103.4954505 49.25 103.9375 C53.18446057 109.67525499 53.11323418 116.17549895 52.25 122.9375 C50.59425971 126.36760079 48.75748267 128.62501397 45.8125 131 C42.14694949 134.08147928 38.78198898 137.39132962 35.4375 140.8125 C27.13804613 149.22582432 18.03337138 156.32496071 8.25 162.9375 C7.49976563 163.46214844 6.74953125 163.98679688 5.9765625 164.52734375 C-5.59993855 172.50903658 -16.53440907 177.65492235 -30.75 176.9375 C-30.75 176.2775 -30.75 175.6175 -30.75 174.9375 C-31.471875 174.875625 -32.19375 174.81375 -32.9375 174.75 C-37.68205578 173.37935055 -40.08669536 169.93245696 -42.75 165.9375 C-43.36394221 163.20292253 -43.90285223 160.50821017 -44.375 157.75 C-44.5090625 157.00041016 -44.643125 156.25082031 -44.78125 155.47851562 C-45.11045419 153.63262072 -45.43106498 151.78519691 -45.75 149.9375 C-46.54397239 151.18603673 -47.33507217 152.43640043 -48.125 153.6875 C-48.56585938 154.38359375 -49.00671875 155.0796875 -49.4609375 155.796875 C-50.66880906 157.80267383 -51.73387737 159.82928296 -52.75 161.9375 C-53.41 161.9375 -54.07 161.9375 -54.75 161.9375 C-54.97558594 162.65808594 -55.20117188 163.37867188 -55.43359375 164.12109375 C-57.04312069 167.56462171 -59.00530472 169.44549178 -61.8125 172 C-63.16021484 173.25490234 -63.16021484 173.25490234 -64.53515625 174.53515625 C-72.56204331 180.8999875 -80.48992777 181.57896271 -90.49658203 181.45898438 C-92.61478062 181.43760316 -94.72956282 181.4588262 -96.84765625 181.484375 C-105.18070158 181.49900079 -112.15262018 180.47904472 -119.75 176.9375 C-119.75 176.2775 -119.75 175.6175 -119.75 174.9375 C-120.50152344 174.69773438 -121.25304687 174.45796875 -122.02734375 174.2109375 C-125.1827389 172.73509988 -126.33292524 171.40096219 -128.3125 168.5625 C-128.87066406 167.79164063 -129.42882812 167.02078125 -130.00390625 166.2265625 C-135.3557299 156.14549872 -136.42004213 146.66519647 -136.25 135.375 C-136.2431871 134.32442413 -136.2431871 134.32442413 -136.23623657 133.25262451 C-136.1489401 121.75798791 -134.93671425 111.0040895 -131.75 99.9375 C-131.48832031 98.94363281 -131.22664062 97.94976562 -130.95703125 96.92578125 C-129.33862935 91.08701639 -127.08894061 85.51924302 -124.75 79.9375 C-124.31816406 78.865 -123.88632813 77.7925 -123.44140625 76.6875 C-119.41418027 66.90865318 -114.62547467 57.75071201 -108.75 48.9375 C-108.09 48.9375 -107.43 48.9375 -106.75 48.9375 C-106.5334375 48.27363281 -106.316875 47.60976563 -106.09375 46.92578125 C-104.29863442 42.93373643 -101.84725071 39.63162402 -99.25 36.125 C-98.75113281 35.43212891 -98.25226563 34.73925781 -97.73828125 34.02539062 C-97.25746094 33.37119141 -96.77664062 32.71699219 -96.28125 32.04296875 C-95.84361328 31.44637451 -95.40597656 30.84978027 -94.95507812 30.23510742 C-94.55740234 29.80689697 -94.15972656 29.37868652 -93.75 28.9375 C-93.09 28.9375 -92.43 28.9375 -91.75 28.9375 C-91.51023438 28.37417969 -91.27046875 27.81085937 -91.0234375 27.23046875 C-82.42819935 11.75376693 -61.12354525 -0.00420125 -44.75 -5.0625 C-43.67621094 -5.41957031 -42.60242188 -5.77664063 -41.49609375 -6.14453125 C-27.31697592 -9.61908046 -12.59064661 -7.12108503 0 0 Z M-25.7578125 41.390625 C-27.75 41.9375 -27.75 41.9375 -29.6796875 42.234375 C-42.14575606 44.21012926 -55.08913906 53.08499583 -64.75 60.9375 C-64.75 61.5975 -64.75 62.2575 -64.75 62.9375 C-65.34296875 63.19273438 -65.9359375 63.44796875 -66.546875 63.7109375 C-68.96224538 65.05566498 -70.26211706 66.42964367 -72 68.5625 C-72.78117187 69.50996094 -72.78117187 69.50996094 -73.578125 70.4765625 C-73.96484375 70.95867187 -74.3515625 71.44078125 -74.75 71.9375 C-73.67892883 72.80699317 -72.59254056 73.65764205 -71.5 74.5 C-70.59507813 75.21349609 -70.59507813 75.21349609 -69.671875 75.94140625 C-67.78357225 77.15246292 -67.78357225 77.15246292 -65.578125 76.65234375 C-63.76181519 76.08299528 -63.76181519 76.08299528 -62.75 74.9375 C-61.0034241 74.81148865 -59.2510766 74.76170506 -57.5 74.75 C-56.54609375 74.73582031 -55.5921875 74.72164062 -54.609375 74.70703125 C-51.53338636 74.9549593 -49.45775365 75.45757257 -46.75 76.9375 C-45.5703125 78.73046875 -45.5703125 78.73046875 -44.75 80.9375 C-44.22019531 82.13826172 -44.22019531 82.13826172 -43.6796875 83.36328125 C-38.63542459 97.16961565 -40.08127319 112.56213427 -41.75 126.9375 C-39.28298465 124.47048465 -38.68050732 122.34431036 -37.5 119.0625 C-35.38936007 113.41544862 -32.91021015 108.12386221 -30.15234375 102.76953125 C-28.48751058 99.40740298 -27.14881626 95.97574067 -25.8046875 92.4765625 C-24.63771454 89.66718315 -23.27883478 87.01106323 -21.875 84.3125 C-11.76650651 64.77117113 -11.76650651 64.77117113 -10.75 43.9375 C-13.0051922 41.6823078 -14.7547587 40.96026532 -17.75 39.9375 C-20.70262924 39.9375 -22.9573216 40.53072323 -25.7578125 41.390625 Z M-95.75 99.9375 C-103.73891884 109.94892994 -108.78548066 121.9778123 -107.75 134.9375 C-106.59272935 137.23002799 -105.5660291 139.1214709 -103.75 140.9375 C-100.50366997 141.37514517 -99.16021836 141.23564839 -96.4765625 139.28515625 C-92.41946701 135.07557402 -92.41946701 135.07557402 -90.390625 129.7578125 C-90.64915009 127.40523419 -91.15616049 125.2285475 -91.75 122.9375 C-92.09874378 120.9818522 -92.43121922 119.0232548 -92.75 117.0625 C-92.92273438 116.05960938 -93.09546875 115.05671875 -93.2734375 114.0234375 C-93.99560233 109.34712423 -94.39717133 104.65426222 -94.75 99.9375 C-95.08 99.9375 -95.41 99.9375 -95.75 99.9375 Z M-76.75 105.9375 C-79.26948669 111.39638782 -78.70849625 115.44391801 -76.75 120.9375 C-75.56368655 123.13487604 -74.27989498 124.94863653 -72.75 126.9375 C-70.81890419 126.98039755 -70.81890419 126.98039755 -68.75 125.9375 C-66.93721244 122.4414097 -65.75 119.89768245 -65.75 115.9375 C-65.09 115.9375 -64.43 115.9375 -63.75 115.9375 C-63.42 114.9475 -63.09 113.9575 -62.75 112.9375 C-63.36488281 112.85113281 -63.97976562 112.76476562 -64.61328125 112.67578125 C-71.32865389 111.50835602 -71.32865389 111.50835602 -73.6875 108.3125 C-74.038125 107.52875 -74.38875 106.745 -74.75 105.9375 C-75.41 105.9375 -76.07 105.9375 -76.75 105.9375 Z M-58.75 106.9375 C-60.13938077 108.89897874 -61.4760411 110.89916576 -62.75 112.9375 C-60.77 112.9375 -58.79 112.9375 -56.75 112.9375 C-55.73888907 109.88836772 -55.73888907 109.88836772 -56.75 106.9375 C-57.41 106.9375 -58.07 106.9375 -58.75 106.9375 Z " fill="#0080C8" transform="translate(137.75,9.0625)"/>
<path d="M0 0 C4.10232637 2.4944791 4.10232637 2.4944791 5.25 5.9375 C5.91 5.9375 6.57 5.9375 7.25 5.9375 C19.15512376 20.03567288 18.42973242 39.78071094 16.9765625 57.21875 C16.54562382 59.85316759 15.95306246 62.36207121 15.25 64.9375 C14.78980469 66.74734375 14.78980469 66.74734375 14.3203125 68.59375 C10.2204793 83.97366481 4.0683554 98.9390493 -3.265625 113.05078125 C-5.13397269 116.68422584 -6.88729534 120.36517222 -8.625 124.0625 C-9.09123779 125.04174438 -9.09123779 125.04174438 -9.56689453 126.04077148 C-11.20986086 129.34658398 -11.20986086 129.34658398 -11.75 132.9375 C1.68935169 129.95446633 16.14147238 122.15603849 27.3671875 114.23828125 C29.17582099 112.98874816 31.00720191 111.92371174 32.9375 110.875 C35.5178423 109.36574318 37.14176884 108.17335362 39.25 106.1875 C42.87027196 103.47229603 44.82950505 103.4954505 49.25 103.9375 C53.18446057 109.67525499 53.11323418 116.17549895 52.25 122.9375 C50.59425971 126.36760079 48.75748267 128.62501397 45.8125 131 C42.14694949 134.08147928 38.78198898 137.39132962 35.4375 140.8125 C27.13804613 149.22582432 18.03337138 156.32496071 8.25 162.9375 C7.49976563 163.46214844 6.74953125 163.98679688 5.9765625 164.52734375 C-5.59993855 172.50903658 -16.53440907 177.65492235 -30.75 176.9375 C-30.75 176.2775 -30.75 175.6175 -30.75 174.9375 C-31.471875 174.875625 -32.19375 174.81375 -32.9375 174.75 C-37.68205578 173.37935055 -40.08669536 169.93245696 -42.75 165.9375 C-43.36394221 163.20292253 -43.90285223 160.50821017 -44.375 157.75 C-44.5090625 157.00041016 -44.643125 156.25082031 -44.78125 155.47851562 C-45.11045419 153.63262072 -45.43106498 151.78519691 -45.75 149.9375 C-46.54397239 151.18603673 -47.33507217 152.43640043 -48.125 153.6875 C-48.56585938 154.38359375 -49.00671875 155.0796875 -49.4609375 155.796875 C-50.66880906 157.80267383 -51.73387737 159.82928296 -52.75 161.9375 C-53.41 161.9375 -54.07 161.9375 -54.75 161.9375 C-54.97558594 162.65808594 -55.20117188 163.37867188 -55.43359375 164.12109375 C-57.04312069 167.56462171 -59.00530472 169.44549178 -61.8125 172 C-63.16021484 173.25490234 -63.16021484 173.25490234 -64.53515625 174.53515625 C-72.56204331 180.8999875 -80.48992777 181.57896271 -90.49658203 181.45898438 C-92.61478062 181.43760316 -94.72956282 181.4588262 -96.84765625 181.484375 C-105.18070158 181.49900079 -112.15262018 180.47904472 -119.75 176.9375 C-119.75 176.2775 -119.75 175.6175 -119.75 174.9375 C-120.50152344 174.69773438 -121.25304687 174.45796875 -122.02734375 174.2109375 C-125.1827389 172.73509988 -126.33292524 171.40096219 -128.3125 168.5625 C-128.87066406 167.79164063 -129.42882812 167.02078125 -130.00390625 166.2265625 C-135.3557299 156.14549872 -136.42004213 146.66519647 -136.25 135.375 C-136.2431871 134.32442413 -136.2431871 134.32442413 -136.23623657 133.25262451 C-136.1489401 121.75798791 -134.93671425 111.0040895 -131.75 99.9375 C-131.48832031 98.94363281 -131.22664062 97.94976562 -130.95703125 96.92578125 C-129.33862935 91.08701639 -127.08894061 85.51924302 -124.75 79.9375 C-124.31816406 78.865 -123.88632813 77.7925 -123.44140625 76.6875 C-119.41418027 66.90865318 -114.62547467 57.75071201 -108.75 48.9375 C-108.09 48.9375 -107.43 48.9375 -106.75 48.9375 C-106.5334375 48.27363281 -106.316875 47.60976563 -106.09375 46.92578125 C-104.29863442 42.93373643 -101.84725071 39.63162402 -99.25 36.125 C-98.75113281 35.43212891 -98.25226563 34.73925781 -97.73828125 34.02539062 C-97.25746094 33.37119141 -96.77664062 32.71699219 -96.28125 32.04296875 C-95.84361328 31.44637451 -95.40597656 30.84978027 -94.95507812 30.23510742 C-94.55740234 29.80689697 -94.15972656 29.37868652 -93.75 28.9375 C-93.09 28.9375 -92.43 28.9375 -91.75 28.9375 C-91.51023438 28.37417969 -91.27046875 27.81085937 -91.0234375 27.23046875 C-82.42819935 11.75376693 -61.12354525 -0.00420125 -44.75 -5.0625 C-43.67621094 -5.41957031 -42.60242188 -5.77664063 -41.49609375 -6.14453125 C-27.31697592 -9.61908046 -12.59064661 -7.12108503 0 0 Z M-98.3125 40.5625 C-118.16165211 66.09814665 -132.91078919 97.69005092 -132.9375 130.4375 C-132.94974609 131.22769531 -132.96199219 132.01789063 -132.97460938 132.83203125 C-133.00182668 143.91854491 -130.42586193 151.68529349 -122.75 159.9375 C-114.28067711 166.32466378 -105.68315059 166.16812213 -95.4375 166.25 C-94.23931641 166.27900391 -93.04113281 166.30800781 -91.80664062 166.33789062 C-80.27860886 166.42046055 -74.46335496 163.19857334 -66.140625 155.4375 C-63.12158057 152.28032936 -60.67451433 148.94072573 -58.2890625 145.2890625 C-56.89200323 143.15446941 -55.39053751 141.1886984 -53.8125 139.1875 C-51.59257114 135.68943029 -51.25562937 133.99133913 -51.75 129.9375 C-55.12810112 130.54073234 -57.07255812 131.83942055 -59.75 133.9375 C-59.18410156 133.44121094 -58.61820312 132.94492188 -58.03515625 132.43359375 C-53.24052238 128.10469312 -53.24052238 128.10469312 -50.875 122.25 C-50.83375 121.156875 -50.7925 120.06375 -50.75 118.9375 C-50.08333333 117.27083333 -49.41666667 115.60416667 -48.75 113.9375 C-46.73461405 104.46518603 -46.15952884 93.64356599 -50.75 84.9375 C-53.48369086 81.29257885 -54.72572556 80.10211553 -59.25 79.375 C-64.16700526 80.16523299 -66.33662485 82.52412485 -69.75 85.9375 C-70.348125 85.15375 -70.94625 84.37 -71.5625 83.5625 C-74.09748968 80.52051238 -75.65300424 79.0805864 -79.625 78.5625 C-83.60362002 79.0399344 -85.00117941 80.04009452 -87.75 82.9375 C-93.45747868 94.35245735 -92.41928459 104.94124115 -88.75 116.9375 C-86.582936 122.82234325 -84.2348545 128.71021825 -80.75 133.9375 C-81.34167969 134.02386719 -81.93335938 134.11023438 -82.54296875 134.19921875 C-90.06308181 135.53640035 -93.13787638 138.6615207 -97.5625 144.75 C-98.284375 145.801875 -99.00625 146.85375 -99.75 147.9375 C-105.16929865 147.50395611 -108.64187933 146.57878877 -112.75 142.9375 C-117.57149446 134.74095941 -116.87605709 123.47092032 -115.0234375 114.3671875 C-114.07036139 111.15152419 -112.9768069 108.05846478 -111.75 104.9375 C-111.36457031 103.92042969 -110.97914062 102.90335937 -110.58203125 101.85546875 C-98.30998313 70.91719857 -73.04093691 43.27437514 -42.3125 30 C-40.46742233 29.28846739 -38.61406536 28.59768982 -36.75 27.9375 C-36.069375 27.69257812 -35.38875 27.44765625 -34.6875 27.1953125 C-27.50801605 25.0115528 -19.14722198 24.78589933 -12.0625 27.1875 C-9.54858542 29.08992184 -8.87161987 30.04332015 -7.75 32.9375 C-6.004251 48.85328955 -11.56366307 64.97822817 -17.4375 79.5625 C-17.78490234 80.42931396 -18.13230469 81.29612793 -18.49023438 82.18920898 C-20.96340989 88.25461623 -23.7311732 94.09507204 -26.73779297 99.91064453 C-40.20929269 125.07091787 -40.20929269 125.07091787 -40.99609375 152.4609375 C-39.19645912 156.25781371 -37.44004112 158.77481503 -33.75 160.9375 C-25.54805888 162.15626233 -18.86014724 160.98569674 -11.75 156.9375 C-10.70328125 156.38964844 -9.6565625 155.84179688 -8.578125 155.27734375 C0.47065849 150.38094646 8.37999495 144.53924219 16.25 137.9375 C16.88115723 137.40930664 17.51231445 136.88111328 18.16259766 136.33691406 C25.51326989 130.15094159 32.58651908 123.84144964 39.19921875 116.86328125 C41.14907322 115.03227505 42.80160558 113.9710209 45.25 112.9375 C44.92 111.6175 44.59 110.2975 44.25 108.9375 C43.26 108.9375 42.27 108.9375 41.25 108.9375 C41.25 109.9275 41.25 110.9175 41.25 111.9375 C40.41082031 112.33582031 40.41082031 112.33582031 39.5546875 112.7421875 C37.04831686 114.04210177 34.73853734 115.51793912 32.375 117.0625 C27.89806613 119.93449531 23.36316746 122.66764937 18.75 125.3125 C18.15074707 125.65812988 17.55149414 126.00375977 16.93408203 126.35986328 C14.38930541 127.80791579 12.03679116 129.00856961 9.25 129.9375 C9.25 130.5975 9.25 131.2575 9.25 131.9375 C8.55519531 132.05351562 7.86039063 132.16953125 7.14453125 132.2890625 C3.91765356 133.01195278 1.0124412 134.09725378 -2.0625 135.3125 C-3.20847656 135.75722656 -4.35445312 136.20195312 -5.53515625 136.66015625 C-7.38545789 137.39533078 -9.23049754 138.14482127 -11.05859375 138.93359375 C-16.12100713 141.06245572 -20.38156051 141.21203864 -25.75 140.9375 C-25.34566474 134.68752859 -24.1452743 129.53223771 -21.625 123.8125 C-21.31151611 123.07733154 -20.99803223 122.34216309 -20.67504883 121.5847168 C-17.18367422 113.46903968 -13.39156156 105.4901474 -9.59667969 97.51318359 C-0.49835326 78.30841594 8.37521253 59.18810105 8.5625 37.6875 C8.59150391 36.59308594 8.62050781 35.49867187 8.65039062 34.37109375 C8.72965313 24.18891061 6.13386732 17.14629563 -0.8515625 9.71875 C-8.90854317 2.15911382 -19.57115103 -1.17277177 -30.5 -1.625 C-58.56383259 -0.62828231 -81.56732655 19.62878932 -98.3125 40.5625 Z M-25.7578125 41.390625 C-27.75 41.9375 -27.75 41.9375 -29.6796875 42.234375 C-42.14575606 44.21012926 -55.08913906 53.08499583 -64.75 60.9375 C-64.75 61.5975 -64.75 62.2575 -64.75 62.9375 C-65.34296875 63.19273438 -65.9359375 63.44796875 -66.546875 63.7109375 C-68.96224538 65.05566498 -70.26211706 66.42964367 -72 68.5625 C-72.78117187 69.50996094 -72.78117187 69.50996094 -73.578125 70.4765625 C-73.96484375 70.95867187 -74.3515625 71.44078125 -74.75 71.9375 C-73.67892883 72.80699317 -72.59254056 73.65764205 -71.5 74.5 C-70.59507813 75.21349609 -70.59507813 75.21349609 -69.671875 75.94140625 C-67.78357225 77.15246292 -67.78357225 77.15246292 -65.578125 76.65234375 C-63.76181519 76.08299528 -63.76181519 76.08299528 -62.75 74.9375 C-61.0034241 74.81148865 -59.2510766 74.76170506 -57.5 74.75 C-56.54609375 74.73582031 -55.5921875 74.72164062 -54.609375 74.70703125 C-51.53338636 74.9549593 -49.45775365 75.45757257 -46.75 76.9375 C-45.5703125 78.73046875 -45.5703125 78.73046875 -44.75 80.9375 C-44.22019531 82.13826172 -44.22019531 82.13826172 -43.6796875 83.36328125 C-38.63542459 97.16961565 -40.08127319 112.56213427 -41.75 126.9375 C-39.28298465 124.47048465 -38.68050732 122.34431036 -37.5 119.0625 C-35.38936007 113.41544862 -32.91021015 108.12386221 -30.15234375 102.76953125 C-28.48751058 99.40740298 -27.14881626 95.97574067 -25.8046875 92.4765625 C-24.63771454 89.66718315 -23.27883478 87.01106323 -21.875 84.3125 C-11.76650651 64.77117113 -11.76650651 64.77117113 -10.75 43.9375 C-13.0051922 41.6823078 -14.7547587 40.96026532 -17.75 39.9375 C-20.70262924 39.9375 -22.9573216 40.53072323 -25.7578125 41.390625 Z M-95.75 99.9375 C-103.73891884 109.94892994 -108.78548066 121.9778123 -107.75 134.9375 C-106.59272935 137.23002799 -105.5660291 139.1214709 -103.75 140.9375 C-100.50366997 141.37514517 -99.16021836 141.23564839 -96.4765625 139.28515625 C-92.41946701 135.07557402 -92.41946701 135.07557402 -90.390625 129.7578125 C-90.64915009 127.40523419 -91.15616049 125.2285475 -91.75 122.9375 C-92.09874378 120.9818522 -92.43121922 119.0232548 -92.75 117.0625 C-92.92273438 116.05960938 -93.09546875 115.05671875 -93.2734375 114.0234375 C-93.99560233 109.34712423 -94.39717133 104.65426222 -94.75 99.9375 C-95.08 99.9375 -95.41 99.9375 -95.75 99.9375 Z " fill="#000203" transform="translate(137.75,9.0625)"/>
<path d="M0 0 C4.2626172 1.15445882 5.64978723 3.14893303 8 6.8125 C8.3125 9.6875 8.3125 9.6875 8 11.8125 C8.66 11.8125 9.32 11.8125 10 11.8125 C10.0825 11.090625 10.165 10.36875 10.25 9.625 C11.18673526 6.11224279 12.35875545 4.31097457 15 1.8125 C17.9375 1.125 17.9375 1.125 21 1.8125 C25.94515067 6.75765067 27.14775754 10.22679644 27.1875 17.0625 C27.15953989 22.06735913 26.74057544 26.13470351 25 30.8125 C23.35 30.4825 21.7 30.1525 20 29.8125 C19.67 30.4725 19.34 31.1325 19 31.8125 C19 31.1525 19 30.4925 19 29.8125 C18.01 29.8125 17.02 29.8125 16 29.8125 C14.39644899 33.32026784 13.77963136 35.95604879 14 39.8125 C14.99 38.4925 15.98 37.1725 17 35.8125 C16.67 38.1225 16.34 40.4325 16 42.8125 C16.99 42.3175 16.99 42.3175 18 41.8125 C17.34 43.7925 16.68 45.7725 16 47.8125 C16.66 47.8125 17.32 47.8125 18 47.8125 C16.64908907 52.23366304 14.86882275 54.29326658 11 56.8125 C8.1875 57.5625 8.1875 57.5625 6 57.8125 C7.64882855 56.08123002 9.02242254 54.79996976 11.125 53.625 C14.082619 50.7659683 13.73600103 47.83848425 14 43.8125 C13.39671875 44.0290625 12.7934375 44.245625 12.171875 44.46875 C11.37265625 44.7471875 10.5734375 45.025625 9.75 45.3125 C8.96109375 45.5909375 8.1721875 45.869375 7.359375 46.15625 C5 46.8125 5 46.8125 1 46.8125 C-0.13011652 44.6066576 -1.25415788 42.39804973 -2.375 40.1875 C-2.69210938 39.57003906 -3.00921875 38.95257813 -3.3359375 38.31640625 C-6.90463921 31.25335077 -8.3818627 25.28167921 -8.4375 17.375 C-8.47037109 16.55451172 -8.50324219 15.73402344 -8.53710938 14.88867188 C-8.5940328 8.40457652 -7.04476827 1.90795807 0 0 Z M2 17.8125 C-0.51948669 23.27138782 0.04150375 27.31891801 2 32.8125 C3.18631345 35.00987604 4.47010502 36.82363653 6 38.8125 C7.93109581 38.85539755 7.93109581 38.85539755 10 37.8125 C11.81278756 34.3164097 13 31.77268245 13 27.8125 C13.66 27.8125 14.32 27.8125 15 27.8125 C15.33 26.8225 15.66 25.8325 16 24.8125 C15.38511719 24.72613281 14.77023438 24.63976562 14.13671875 24.55078125 C7.42134611 23.38335602 7.42134611 23.38335602 5.0625 20.1875 C4.711875 19.40375 4.36125 18.62 4 17.8125 C3.34 17.8125 2.68 17.8125 2 17.8125 Z M20 18.8125 C18.61061923 20.77397874 17.2739589 22.77416576 16 24.8125 C17.98 24.8125 19.96 24.8125 22 24.8125 C23.01111093 21.76336772 23.01111093 21.76336772 22 18.8125 C21.34 18.8125 20.68 18.8125 20 18.8125 Z " fill="#000203" transform="translate(59,97.1875)"/>
<path d="M0 0 C0.33 0 0.66 0 1 0 C1.144375 1.0725 1.28875 2.145 1.4375 3.25 C1.85914777 6.73553112 1.85914777 6.73553112 2.62109375 8.953125 C3.10366301 11.55999398 2.54655133 13.03125699 1.625 15.5 C0.43269562 18.72468411 0.43269562 18.72468411 -0.3828125 22.0546875 C-1.19788186 24.62370357 -2.53888387 25.80051901 -4.5 27.625 C-7.11806646 30.03610916 -7.11806646 30.03610916 -9 33 C-9.66 33 -10.32 33 -11 33 C-10.67 31.35 -10.34 29.7 -10 28 C-10.66 28.33 -11.32 28.66 -12 29 C-12 27.68 -12 26.36 -12 25 C-12.66 25.33 -13.32 25.66 -14 26 C-14.23071975 22.69301698 -14.09411191 20.27057174 -13 17.125 C-11 15 -11 15 -9.01953125 14.69140625 C-7.01038901 14.68785025 -5.00242986 14.83586641 -3 15 C-1.08373163 10.01770224 -0.4452885 5.27315333 0 0 Z " fill="#006BA8" transform="translate(86,112)"/>
<path d="M0 0 C0.33 0 0.66 0 1 0 C1.01417969 1.07636719 1.02835938 2.15273437 1.04296875 3.26171875 C1.33867477 14.07114066 2.92355906 23.30162287 8.6640625 32.734375 C10 35 10 35 10 37 C12.97 36.505 12.97 36.505 16 36 C15.67 36.66 15.34 37.32 15 38 C10.38 38 5.76 38 1 38 C1 37.67 1 37.34 1 37 C3.97 36.505 3.97 36.505 7 36 C6.61328125 35.27296875 6.2265625 34.5459375 5.828125 33.796875 C2.20129295 26.7945755 -1.1787003 19.71226219 -3 12 C-2 10 -2 10 -1 9 C-0.76807135 7.48530552 -0.58784762 5.96245438 -0.4375 4.4375 C-0.35371094 3.61121094 -0.26992188 2.78492187 -0.18359375 1.93359375 C-0.12300781 1.29550781 -0.06242187 0.65742187 0 0 Z " fill="#00498D" transform="translate(50,107)"/>
<path d="M0 0 C1 3 1 3 1 6 C1.33 6.66 1.66 7.32 2 8 C1.0625 10.125 1.0625 10.125 0 12 C0.66 12 1.32 12 2 12 C0.64908907 16.42116304 -1.13117725 18.48076658 -5 21 C-7.8125 21.75 -7.8125 21.75 -10 22 C-8.35117145 20.26873002 -6.97757746 18.98746976 -4.875 17.8125 C-1.917381 14.9534683 -2.26399897 12.02598425 -2 8 C-3.32 7.67 -4.64 7.34 -6 7 C-5.34 7 -4.68 7 -4 7 C-3.67 5.68 -3.34 4.36 -3 3 C-2.67 3.33 -2.34 3.66 -2 4 C-1.34 2.68 -0.68 1.36 0 0 Z " fill="#001C2E" transform="translate(75,133)"/>
<path d="M0 0 C-1.45745424 3.36335594 -3.31117854 5.54534005 -5.9140625 8.109375 C-6.67460938 8.86347656 -7.43515625 9.61757813 -8.21875 10.39453125 C-9.0128125 11.17183594 -9.806875 11.94914062 -10.625 12.75 C-11.42679688 13.54277344 -12.22859375 14.33554687 -13.0546875 15.15234375 C-15.03202846 17.10614493 -17.01388909 19.05512103 -19 21 C-19.66 20.67 -20.32 20.34 -21 20 C-2.68421053 0 -2.68421053 0 0 0 Z " fill="#006AAD" transform="translate(62,28)"/>
<path d="M0 0 C0.33 0 0.66 0 1 0 C1.144375 1.0725 1.28875 2.145 1.4375 3.25 C1.85250266 6.7367976 1.85250266 6.7367976 2.640625 8.94140625 C3.11919559 11.68278344 2.43478821 13.16339454 1.3125 15.6875 C0.97863281 16.47511719 0.64476563 17.26273438 0.30078125 18.07421875 C-1 20 -1 20 -3.14453125 20.76953125 C-3.75683594 20.84558594 -4.36914062 20.92164063 -5 21 C-4.54625 20.13375 -4.0925 19.2675 -3.625 18.375 C-1.100154 12.59537622 -0.73162794 6.20592639 0 0 Z " fill="#006A9C" transform="translate(86,112)"/>
<path d="M0 0 C2.32472205 2.85306797 3.7508258 5.54074837 5 9 C6.98 8.67 8.96 8.34 11 8 C10.67 8.66 10.34 9.32 10 10 C5.38 10 0.76 10 -4 10 C-4 9.67 -4 9.34 -4 9 C-2.02 8.67 -0.04 8.34 2 8 C1.484375 7.05125 0.96875 6.1025 0.4375 5.125 C-0.036875 4.09375 -0.51125 3.0625 -1 2 C-0.67 1.34 -0.34 0.68 0 0 Z " fill="#00437B" transform="translate(55,135)"/>
<path d="M0 0 C1 3 1 3 1 6 C1.33 6.66 1.66 7.32 2 8 C1.34 8.66 0.68 9.32 0 10 C-0.69748583 11.31747324 -1.36959957 12.64914193 -2 14 C-2 12.02 -2 10.04 -2 8 C-3.32 7.67 -4.64 7.34 -6 7 C-5.34 7 -4.68 7 -4 7 C-3.67 5.68 -3.34 4.36 -3 3 C-2.67 3.33 -2.34 3.66 -2 4 C-1.34 2.68 -0.68 1.36 0 0 Z " fill="#003962" transform="translate(75,133)"/>
<path d="M0 0 C-0.55774272 3.23490776 -1.37211508 4.97855006 -4 7 C-4.99 7 -5.98 7 -7 7 C-6.22006468 2.47637516 -4.81844319 0 0 0 Z " fill="#0082C0" transform="translate(86,132)"/>
<path d="M0 0 C0.66 0 1.32 0 2 0 C1.4359146 3.94859783 0.2568294 6.70879046 -2 10 C-2.33 10 -2.66 10 -3 10 C-3.2295711 6.63295715 -3.33943529 4.58629732 -1.625 1.625 C-1.08875 1.08875 -0.5525 0.5525 0 0 Z " fill="#007FC1" transform="translate(75,128)"/>
<path d="M0 0 C0.33 0 0.66 0 1 0 C1 5.28 1 10.56 1 16 C0.01 16 -0.98 16 -2 16 C-2.33 14.02 -2.66 12.04 -3 10 C-2.34 9.67 -1.68 9.34 -1 9 C-0.53348793 6.87423218 -0.53348793 6.87423218 -0.375 4.4375 C-0.30023438 3.61121094 -0.22546875 2.78492187 -0.1484375 1.93359375 C-0.09945312 1.29550781 -0.05046875 0.65742187 0 0 Z " fill="#00487A" transform="translate(50,107)"/>
<path d="M0 0 C0 3 0 3 -1 6 C-0.34 6.33 0.32 6.66 1 7 C-0.28062485 8.7074998 -1.61767557 10.37373596 -3 12 C-3.66 12 -4.32 12 -5 12 C-4.54965877 10.37276701 -4.08944646 8.74826336 -3.625 7.125 C-3.36976562 6.22007812 -3.11453125 5.31515625 -2.8515625 4.3828125 C-2 2 -2 2 0 0 Z " fill="#005A92" transform="translate(80,133)"/>
<path d="M0 0 C-0.30618405 3.67420866 -0.75771784 4.78135513 -3.5625 7.3125 C-4.366875 7.869375 -5.17125 8.42625 -6 9 C-5.38983051 3.50847458 -5.38983051 3.50847458 -3.5625 1.125 C-2 0 -2 0 0 0 Z " fill="#0088CA" transform="translate(83,127)"/>
<path d="M0 0 C1.4540625 0.0309375 1.4540625 0.0309375 2.9375 0.0625 C2.9375 0.3925 2.9375 0.7225 2.9375 1.0625 C2.050625 1.289375 1.16375 1.51625 0.25 1.75 C-4.63562917 3.68581533 -7.18969727 6.7532959 -10.0625 11.0625 C-9.64735103 6.2190954 -7.60041301 4.24662171 -4.0625 1.0625 C-3.0625 0.0625 -3.0625 0.0625 0 0 Z " fill="#007BB6" transform="translate(58.0625,87.9375)"/>
<path d="M0 0 C1.32 0.33 2.64 0.66 4 1 C4 1.99 4 2.98 4 4 C1.69 4.33 -0.62 4.66 -3 5 C-2.67 4.34 -2.34 3.68 -2 3 C-1.34 3 -0.68 3 0 3 C0 2.01 0 1.02 0 0 Z " fill="#007BB5" transform="translate(179,118)"/>
<path d="M0 0 C2.35448165 2.55068845 2.98327924 3.71017358 3.1875 7.25 C3.125625 8.1575 3.06375 9.065 3 10 C0.64551835 7.44931155 0.01672076 6.28982642 -0.1875 2.75 C-0.125625 1.8425 -0.06375 0.935 0 0 Z " fill="#005FAC" transform="translate(49,120)"/>
</svg>
